<?xml version="1.0" encoding="UTF-8" standalone="no"?>
<svg
   xmlns:dc="http://purl.org/dc/elements/1.1/"
   xmlns:cc="http://creativecommons.org/ns#"
   xmlns:rdf="http://www.w3.org/1999/02/22-rdf-syntax-ns#"
   xmlns:svg="http://www.w3.org/2000/svg"
   xmlns="http://www.w3.org/2000/svg"
   width="256pt"
   height="256pt"
   viewBox="0 0 256 256"
   version="1.1"
   id="svg13">
  <metadata
     id="metadata19">
    <rdf:RDF>
      <cc:Work
         rdf:about="">
        <dc:format>image/svg+xml</dc:format>
        <dc:type
           rdf:resource="http://purl.org/dc/dcmitype/StillImage" />
        <dc:title></dc:title>
      </cc:Work>
    </rdf:RDF>
  </metadata>
  <defs
     id="defs17" />
  <g
     id="#e0e1e4fe">
    <path
       opacity="1.00"
       fill="#e0e1e4"
       d=" M 0.00 0.00 L 256.00 0.00 L 256.00 256.00 L 0.00 256.00 L 0.00 0.00 M 115.25 22.56 C 82.17 26.61 51.09 46.60 35.10 76.07 C 17.20 106.97 16.97 146.85 33.73 178.26 C 44.61 198.50 62.35 214.98 83.05 224.88 C 100.22 232.45 119.25 236.25 138.00 234.19 C 168.84 231.41 198.64 214.89 215.95 188.98 C 224.98 176.47 230.69 161.75 233.66 146.68 C 239.77 112.69 228.06 75.87 202.84 52.15 C 180.23 29.54 146.93 18.47 115.25 22.56 Z"
       id="path2"
       style="fill:#30C530;fill-opacity:1" />
  </g>
  <g
     id="#fefefefe">
    <path
       style="opacity:1;fill:#fefefe"
       d="M -213.03929,7.2193788 C -379.38761,171.06406 -94.243085,108.12649 -94.629295,131.33938 c -2.97,15.07 -8.679995,29.79 -17.709995,42.3 -17.31,25.91 -47.11,42.43 -77.95,45.21 -18.75,2.06 -37.78,-1.74 -54.95,-9.31 -20.7,-9.9 -38.44,-26.38 -49.32,-46.62 -16.76,-31.41 -16.53,-71.290001 1.37,-102.190001 15.99,-29.47 47.07,-49.46 80.15,-53.5100002 m 5.15,22.9400002 c -25.7,3.87 -44.18,31.83 -39.86,57.08 2.78,17.780001 13.23,34.930001 29.5,43.320001 12.22,7.28 28.45,4.99 39.7,-3.17 -32.98035,-7.63892 4.12353,-102.353375 -29.34,-97.230001 m 8.59,119.250001 c -12.32,0.92 -23.35,-6.01 -32.3,-13.75 -11.44,4.38 -23.39,7.45 -35.64,8.19 -5.86,-0.62 -10.26,3.42 -14.46,6.73 12.5,33.03 44.09,60.64 80.49,60.72 36.07,0.75 68.82,-25.17 81.55,-58 1.02,-5.38 -5.76,-8.11 -9.9,-8.89 -13.91,-1.36 -27.84,-3.9 -40.64,-9.72 -8.13,7.4 -17.58,14.49 -29.1,14.72 z"
       id="path5" />
    <path
       transform="scale(0.74999998)"
       id="path14"
       d="M 158.96148,312.43572 C 138.5145,310.50851 117.82723,304.18724 101.28917,294.81317 96.80628,292.27219 87.600267,286.07852 83.295735,282.70746 54.073347,259.82211 35.488775,228.1553 30.251327,192.32348 29.125621,184.622 28.794461,179.75095 28.794461,170.89434 c 0,-9.30246 0.341495,-13.95942 1.643832,-22.41695 3.006369,-19.52369 10.395391,-38.50249 21.725602,-55.802474 18.309111,-27.95601 46.645368,-48.550947 79.859735,-58.042472 22.39291,-6.399125 45.23475,-7.263855 67.99827,-2.574229 11.65222,2.40053 24.25422,6.779312 34.9894,12.157663 23.56704,11.807143 44.63425,31.295872 58.1788,53.819703 17.40256,28.939479 24.12279,64.508119 18.33026,97.017919 -2.62287,14.72058 -8.65908,31.66658 -15.86574,44.5414 -6.82321,12.18978 -15.89814,24.08589 -25.37656,33.26554 -22.3826,21.67707 -51.30846,35.16048 -83.83635,39.07921 -5.69017,0.68551 -22.29091,0.98519 -27.48023,0.49607 z m 21.15254,-10.474 c 20.77435,-1.91709 40.67504,-10.06755 58.75707,-24.06433 5.64238,-4.3676 17.05146,-15.8191 21.34911,-21.42848 7.25993,-9.47581 12.35872,-18.07315 16.58469,-27.96432 2.22519,-5.2082 2.05293,-7.25979 -0.87216,-10.38694 -3.18026,-3.39996 -7.75651,-4.93638 -18.44017,-6.19105 -15.96314,-1.87467 -29.16194,-5.01267 -41.28116,-9.81455 l -5.48455,-2.17309 -3.95551,3.376 c -9.55329,8.15363 -17.51737,12.74494 -25.93415,14.95107 -4.9113,1.28731 -13.53474,1.63218 -18.62147,0.74472 -9.80395,-1.71045 -20.4547,-7.16608 -30.69819,-15.72452 l -2.54336,-2.12498 -3.899,1.43439 c -14.12721,5.19721 -33.343273,9.33825 -43.333199,9.33825 -6.529863,0 -10.85551,1.94254 -18.753294,8.42163 l -1.05755,0.86758 1.182373,2.93319 c 1.908297,4.73405 6.017245,12.92248 8.926461,17.7889 18.299108,30.61004 47.131559,52.08167 78.419059,58.39896 3.74718,0.7566 7.03293,1.21639 12.47986,1.74635 2.96641,0.28862 13.50858,0.20958 17.17514,-0.12878 z m -3.24345,-102.13093 c 12.01672,-1.94905 22.24225,-7.5056 32.07159,-17.42766 6.76703,-6.83088 11.31725,-13.18925 15.48119,-21.63309 11.42516,-23.16846 10.60208,-48.89363 -2.23543,-69.867642 -9.76723,-15.957778 -26.2552,-27.58155 -43.24317,-30.485787 -11.74042,-2.007125 -25.74136,0.369679 -36.61604,6.215953 -18.56198,9.978996 -31.98203,29.444675 -35.2506,51.130696 -2.67575,17.75291 3.57431,39.98662 15.88589,56.51187 9.52932,12.79075 23.77615,22.59712 36.80409,25.33296 4.19489,0.88092 12.3866,0.98759 17.10248,0.2227 z"
       style="stroke-width:0.36158192;fill:none" />
    <path
       transform="scale(0.74999998)"
       id="path16"
       d="M 158.96148,312.43572 C 138.5145,310.50851 117.82723,304.18724 101.28917,294.81317 96.80628,292.27219 87.600267,286.07852 83.295735,282.70746 54.073347,259.82211 35.488775,228.1553 30.251327,192.32348 29.125621,184.622 28.794461,179.75095 28.794461,170.89434 c 0,-9.30246 0.341495,-13.95942 1.643832,-22.41695 3.006369,-19.52369 10.395391,-38.50249 21.725602,-55.802474 18.309111,-27.95601 46.645368,-48.550947 79.859735,-58.042472 22.39291,-6.399125 45.23475,-7.263855 67.99827,-2.574229 11.65222,2.40053 24.25422,6.779312 34.9894,12.157663 23.56704,11.807143 44.63425,31.295872 58.1788,53.819703 17.40256,28.939479 24.12279,64.508119 18.33026,97.017919 -2.62287,14.72058 -8.65908,31.66658 -15.86574,44.5414 -6.82321,12.18978 -15.89814,24.08589 -25.37656,33.26554 -22.3826,21.67707 -51.30846,35.16048 -83.83635,39.07921 -5.69017,0.68551 -22.29091,0.98519 -27.48023,0.49607 z m 21.15254,-10.474 c 20.77435,-1.91709 40.67504,-10.06755 58.75707,-24.06433 5.64238,-4.3676 17.05146,-15.8191 21.34911,-21.42848 7.25993,-9.47581 12.35872,-18.07315 16.58469,-27.96432 2.22519,-5.2082 2.05293,-7.25979 -0.87216,-10.38694 -3.18026,-3.39996 -7.75651,-4.93638 -18.44017,-6.19105 -15.96314,-1.87467 -29.16194,-5.01267 -41.28116,-9.81455 l -5.48455,-2.17309 -3.95551,3.376 c -9.55329,8.15363 -17.51737,12.74494 -25.93415,14.95107 -4.9113,1.28731 -13.53474,1.63218 -18.62147,0.74472 -9.80395,-1.71045 -20.4547,-7.16608 -30.69819,-15.72452 l -2.54336,-2.12498 -3.899,1.43439 c -14.12721,5.19721 -33.343273,9.33825 -43.333199,9.33825 -6.529863,0 -10.85551,1.94254 -18.753294,8.42163 l -1.05755,0.86758 1.182373,2.93319 c 1.908297,4.73405 6.017245,12.92248 8.926461,17.7889 18.299108,30.61004 47.131559,52.08167 78.419059,58.39896 3.74718,0.7566 7.03293,1.21639 12.47986,1.74635 2.96641,0.28862 13.50858,0.20958 17.17514,-0.12878 z m -3.24345,-102.13093 c 12.01672,-1.94905 22.24225,-7.5056 32.07159,-17.42766 6.76703,-6.83088 11.31725,-13.18925 15.48119,-21.63309 11.42516,-23.16846 10.60208,-48.89363 -2.23543,-69.867642 -9.76723,-15.957778 -26.2552,-27.58155 -43.24317,-30.485787 -11.74042,-2.007125 -25.74136,0.369679 -36.61604,6.215953 -18.56198,9.978996 -31.98203,29.444675 -35.2506,51.130696 -2.67575,17.75291 3.57431,39.98662 15.88589,56.51187 9.52932,12.79075 23.77615,22.59712 36.80409,25.33296 4.19489,0.88092 12.3866,0.98759 17.10248,0.2227 z"
       style="fill:none;stroke-width:0.36158192;opacity:0" />
    <path
       transform="scale(0.74999998)"
       id="path4526"
       d="m 157.26205,312.23198 c -17.1571,-1.69696 -37.09293,-7.49762 -51.37438,-14.94823 C 85.648223,286.72487 67.302056,270.7534 54.163693,252.25484 39.639645,231.80528 31.123201,207.8951 29.04801,181.7418 28.46173,174.353 28.825652,159.93118 29.777946,152.81524 32.809494,130.16225 40.293527,110.42193 53.150841,91.165525 66.291792,71.484317 85.425417,54.940073 107.72532,43.97668 133.24709,31.429314 162.1849,26.576309 189.44284,30.272275 c 25.87417,3.508336 49.17651,13.285259 69.50468,29.161955 7.68687,6.003591 17.82967,16.053548 23.90504,23.686216 15.47392,19.440344 25.5122,42.840554 29.19985,68.067674 2.43973,16.69009 1.85218,33.91275 -1.68606,49.42296 -3.054,13.38755 -7.9799,26.63388 -14.09468,37.90231 -2.99573,5.5206 -9.42495,15.20662 -14.15812,21.3301 -4.34748,5.6245 -15.46687,16.79353 -21.39378,21.48927 -25.99547,20.59559 -57.97744,31.62965 -91.13162,31.44119 -3.99518,-0.0227 -9.54192,-0.26659 -12.3261,-0.54197 z m 22.77966,-10.27026 c 31.73434,-2.9285 61.34896,-20.31517 82.31177,-48.32504 6.27988,-8.39099 13.16579,-20.76195 15.65435,-28.12402 1.14787,-3.39581 -0.28804,-6.61305 -4.08238,-9.14681 -3.28327,-2.19248 -6.88708,-3.24319 -13.9914,-4.07925 -18.28592,-2.15195 -31.53573,-5.27176 -44.67573,-10.51938 l -4.58909,-1.83272 -3.92393,3.38498 c -10.84739,9.35749 -20.65531,14.47901 -30.29567,15.81986 -6.80837,0.94696 -14.68726,0.26492 -20.99549,-1.81747 -7.62172,-2.51599 -18.46013,-8.99525 -25.15804,-15.03962 l -1.29364,-1.1674 -3.40693,1.27143 c -14.35257,5.35621 -29.885682,8.77407 -43.361732,9.54118 -6.121712,0.34848 -8.383284,0.91504 -11.703557,2.93195 -2.005109,1.21801 -8.545031,6.10159 -8.545031,6.38087 0,0.0937 0.824712,2.13113 1.832692,4.52753 6.670876,15.85949 16.173227,29.89499 28.703701,42.39697 17.793717,17.75326 38.115847,28.72062 60.582247,32.69478 7.93135,1.403 18.84087,1.84936 26.93786,1.10216 z m 0.36158,-102.80443 c 10.98321,-2.7676 19.61273,-7.78335 28.33624,-16.46989 11.17839,-11.13102 19.23692,-25.96516 22.27397,-41.0019 2.56756,-12.71231 1.90419,-23.95138 -2.13891,-36.23797 -7.68764,-23.361985 -27.53589,-41.196626 -50.14495,-45.057722 -10.68905,-1.825439 -23.75667,0.131991 -34.16173,5.11717 -22.35597,10.710985 -38.10812,36.013212 -38.10812,61.211972 0,15.56839 6.21005,33.72358 16.11792,47.12101 9.76782,13.20807 24.78786,23.47834 37.97368,25.9653 2.09668,0.39546 4.63867,0.50225 9.54681,0.40106 5.64746,-0.11642 7.25241,-0.2798 10.30509,-1.04903 z"
       style="opacity:0;fill:none;stroke-width:0.36158192" />
    <path
       id="path4528"
       d="M 117.94653,22.20708 C 105.07871,23.479799 90.126838,27.830294 79.41575,33.418252 64.236166,41.337411 50.476541,53.316014 40.622769,67.189933 29.729733,82.527103 23.3424,100.45974 21.786007,120.07471 c -0.43971,5.5416 -0.166769,16.35797 0.547452,21.69492 2.273661,16.98974 7.886685,31.79498 17.529671,46.23729 9.855713,14.7609 24.205931,27.16908 40.930858,35.39163 19.141327,9.41052 40.844682,13.05028 61.288142,10.2783 19.40562,-2.63125 36.88238,-9.96394 52.1285,-21.87146 5.76516,-4.5027 13.37226,-12.04016 17.92878,-17.76466 11.60544,-14.58026 19.13415,-32.13042 21.89989,-51.05076 1.8298,-12.51757 1.38914,-25.43456 -1.26454,-37.06722 -2.2905,-10.04066 -5.98493,-19.975407 -10.57101,-28.426729 -2.2468,-4.14045 -7.06872,-11.404965 -10.61859,-15.997575 C 208.32455,57.280071 199.985,48.903299 195.53982,45.381494 176.04322,29.934802 152.05674,21.659257 127.19111,21.800602 c -2.99639,0.01703 -7.15644,0.199943 -9.24458,0.406478 z m 17.08475,7.702694 c 23.80075,2.196375 46.01172,15.236377 61.73382,36.243779 4.70991,6.293243 9.87435,15.571462 11.74077,21.093015 0.8609,2.546857 -0.21603,4.959787 -3.06179,6.860107 -2.46245,1.64436 -5.16531,2.432393 -10.49355,3.059438 -13.71444,1.613962 -23.65179,3.953817 -33.50679,7.889537 l -3.44182,1.37454 -2.94295,-2.53874 c -8.13554,-7.018115 -15.49148,-10.859255 -22.72175,-11.864892 -5.10628,-0.71022 -11.01545,-0.19869 -15.74662,1.363102 -5.71629,1.886993 -13.8451,6.74644 -18.868528,11.27971 l -0.97023,0.87555 -2.555197,-0.95357 C 83.432218,100.57419 71.782384,98.0108 61.675347,97.435467 c -4.591284,-0.261359 -6.287463,-0.686279 -8.777668,-2.198962 -1.503831,-0.913507 -6.408773,-4.576192 -6.408773,-4.785652 0,-0.07027 0.618534,-1.598348 1.374519,-3.395648 C 52.866582,75.160588 59.993345,64.633963 69.3912,55.257479 82.736488,41.942534 97.978085,33.717014 114.82788,30.736394 c 5.94852,-1.05225 14.13066,-1.38702 20.2034,-0.82662 z m 0.27118,77.103316 c 8.23741,2.0757 14.70955,5.83752 21.25218,12.35242 8.3838,8.34827 14.42769,19.47387 16.70548,30.75143 1.92567,9.53423 1.42814,17.96353 -1.60418,27.17847 -5.76573,17.52149 -20.65192,30.89747 -37.60871,33.79329 -8.01679,1.36908 -17.81751,-0.099 -25.6213,-3.83787 -16.766977,-8.03324 -28.58109,-27.00991 -28.58109,-45.90898 0,-11.67629 4.657538,-25.29269 12.08844,-35.34076 7.325865,-9.90605 18.59089,-17.60875 28.48026,-19.47397 1.57251,-0.2966 3.479,-0.37669 7.16011,-0.3008 4.23559,0.0873 5.4393,0.20985 7.72881,0.78677 z"
       style="opacity:0;fill:none;stroke-width:0.27118644" />
  </g>
  <g
     id="#e0e1e4ff">
    <path
       opacity="1.00"
       fill="#e0e1e4"
       d=" M 120.40 45.50 C 143.40 41.10 165.53 58.61 171.88 80.05 C 179.41 102.83 168.71 129.00 149.74 142.73 C 138.49 150.89 122.26 153.18 110.04 145.90 C 93.77 137.51 83.32 120.36 80.54 102.58 C 76.22 77.33 94.70 49.37 120.40 45.50 Z"
       id="path8"
       style="fill:#30C530;fill-opacity:1" />
    <path
       opacity="1.00"
       fill="#e0e1e4"
       d=" M 128.99 164.75 C 140.51 164.52 149.96 157.43 158.09 150.03 C 170.89 155.85 184.82 158.39 198.73 159.75 C 202.87 160.53 209.65 163.26 208.63 168.64 C 195.90 201.47 163.15 227.39 127.08 226.64 C 90.68 226.56 59.09 198.95 46.59 165.92 C 50.79 162.61 55.19 158.57 61.05 159.19 C 73.30 158.45 85.25 155.38 96.69 151.00 C 105.64 158.74 116.67 165.67 128.99 164.75 Z"
       id="path10"
       style="fill:#30C530;fill-opacity:1" />
  </g>
</svg>
